<mxfile host="app.diagrams.net" agent="Mozilla/5.0 (Windows NT 10.0; Win64; x64) AppleWebKit/537.36 (KHTML, like Gecko) Chrome/132.0.0.0 Safari/537.36" version="26.0.10">
  <diagram name="Page-1" id="03018318-947c-dd8e-b7a3-06fadd420f32">
    <mxGraphModel dx="3354" dy="1258" grid="1" gridSize="10" guides="1" tooltips="1" connect="1" arrows="1" fold="1" page="1" pageScale="1" pageWidth="1100" pageHeight="850" background="none" math="0" shadow="0">
      <root>
        <mxCell id="0" />
        <mxCell id="1" parent="0" />
        <mxCell id="677b7b8949515195-1" value="" style="whiteSpace=wrap;html=1;rounded=0;shadow=0;labelBackgroundColor=none;strokeColor=#000000;strokeWidth=1;fillColor=none;fontFamily=Verdana;fontSize=12;fontColor=#000000;align=center;comic=1;" parent="1" vertex="1">
          <mxGeometry x="15" y="50" width="1060" height="650" as="geometry" />
        </mxCell>
        <mxCell id="ELZsl5hJJOaM7VQSEPj--4" value="" style="rounded=0;whiteSpace=wrap;html=1;fillColor=none;" parent="1" vertex="1">
          <mxGeometry x="55" y="210" width="970" height="160" as="geometry" />
        </mxCell>
        <mxCell id="q4BZEvWAXVgxHDnkbYNj-131" value="Edit" style="rounded=1;fillColor=#0057D8;strokeColor=none;html=1;whiteSpace=wrap;fontColor=#ffffff;align=center;verticalAlign=middle;fontStyle=0;fontSize=12;sketch=0;" parent="1" vertex="1">
          <mxGeometry x="250" y="63.5" width="86" height="33" as="geometry" />
        </mxCell>
        <mxCell id="zX-MKMj06BqSPDNbv460-1" value="&lt;font style=&quot;font-size: 18px;&quot;&gt;companyitassets/tickets/123&lt;/font&gt;" style="html=1;strokeWidth=1;shadow=0;dashed=0;shape=mxgraph.ios7ui.url;fillColor=#e0e0e0;strokeColor=#c0c0c0;buttonText=;strokeColor2=#222222;fontColor=#222222;fontSize=8;spacingTop=2;align=center;whiteSpace=wrap;" parent="1" vertex="1">
          <mxGeometry x="20" width="1050" height="32.5" as="geometry" />
        </mxCell>
        <mxCell id="qXXK7IakLX90gNUS_IdI-1" value="&lt;font style=&quot;font-size: 20px;&quot;&gt;Ticket Details&lt;/font&gt;" style="text;strokeColor=none;fillColor=none;html=1;fontSize=24;fontStyle=1;verticalAlign=middle;align=center;" parent="1" vertex="1">
          <mxGeometry x="50" y="60" width="170" height="40" as="geometry" />
        </mxCell>
        <UserObject label="Asset Type" placeholders="1" name="Variable" id="qXXK7IakLX90gNUS_IdI-4">
          <mxCell style="text;html=1;strokeColor=none;fillColor=none;align=left;verticalAlign=middle;whiteSpace=wrap;overflow=hidden;" parent="1" vertex="1">
            <mxGeometry x="70" y="260" width="70" height="20" as="geometry" />
          </mxCell>
        </UserObject>
        <UserObject label="&lt;font style=&quot;font-size: 14px;&quot;&gt;Monitor&lt;/font&gt;" placeholders="1" name="Variable" id="qXXK7IakLX90gNUS_IdI-5">
          <mxCell style="text;html=1;strokeColor=none;fillColor=none;align=left;verticalAlign=middle;whiteSpace=wrap;overflow=hidden;" parent="1" vertex="1">
            <mxGeometry x="70" y="280" width="110" height="20" as="geometry" />
          </mxCell>
        </UserObject>
        <UserObject label="&lt;span style=&quot;text-align: center;&quot;&gt;&lt;font style=&quot;font-size: 14px;&quot;&gt;SE2422HX&lt;/font&gt;&lt;/span&gt;" placeholders="1" name="Variable" id="qXXK7IakLX90gNUS_IdI-8">
          <mxCell style="text;html=1;strokeColor=none;fillColor=none;align=left;verticalAlign=middle;whiteSpace=wrap;overflow=hidden;" parent="1" vertex="1">
            <mxGeometry x="216" y="280" width="110" height="20" as="geometry" />
          </mxCell>
        </UserObject>
        <UserObject label="Model Nr." placeholders="1" name="Variable" id="qXXK7IakLX90gNUS_IdI-9">
          <mxCell style="text;html=1;strokeColor=none;fillColor=none;align=left;verticalAlign=middle;whiteSpace=wrap;overflow=hidden;" parent="1" vertex="1">
            <mxGeometry x="216" y="260" width="90" height="20" as="geometry" />
          </mxCell>
        </UserObject>
        <UserObject label="&lt;font style=&quot;font-size: 14px;&quot;&gt;Vienna&lt;/font&gt;" placeholders="1" name="Variable" id="qXXK7IakLX90gNUS_IdI-12">
          <mxCell style="text;html=1;strokeColor=none;fillColor=none;align=left;verticalAlign=middle;whiteSpace=wrap;overflow=hidden;" parent="1" vertex="1">
            <mxGeometry x="216" y="340" width="110" height="20" as="geometry" />
          </mxCell>
        </UserObject>
        <UserObject label="Location" placeholders="1" name="Variable" id="qXXK7IakLX90gNUS_IdI-13">
          <mxCell style="text;html=1;strokeColor=none;fillColor=none;align=left;verticalAlign=middle;whiteSpace=wrap;overflow=hidden;" parent="1" vertex="1">
            <mxGeometry x="216" y="320" width="90" height="20" as="geometry" />
          </mxCell>
        </UserObject>
        <mxCell id="qXXK7IakLX90gNUS_IdI-18" value="Go Back" style="html=1;shadow=0;dashed=0;shape=mxgraph.bootstrap.rrect;rSize=5;strokeColor=none;strokeWidth=1;fillColor=none;fontColor=#0085FC;whiteSpace=wrap;align=center;verticalAlign=middle;spacingLeft=0;fontStyle=0;fontSize=16;spacing=5;" parent="1" vertex="1">
          <mxGeometry x="358" y="60" width="70" height="40" as="geometry" />
        </mxCell>
        <UserObject label="Serial Nr." placeholders="1" name="Variable" id="10XDzdRVasA_GGK3fKtw-1">
          <mxCell style="text;html=1;strokeColor=none;fillColor=none;align=left;verticalAlign=middle;whiteSpace=wrap;overflow=hidden;" parent="1" vertex="1">
            <mxGeometry x="70" y="320" width="90" height="20" as="geometry" />
          </mxCell>
        </UserObject>
        <UserObject label="&lt;span style=&quot;font-size: 14px;&quot;&gt;DM-3B-01&lt;/span&gt;" placeholders="1" name="Variable" id="10XDzdRVasA_GGK3fKtw-2">
          <mxCell style="text;html=1;strokeColor=none;fillColor=none;align=left;verticalAlign=middle;whiteSpace=wrap;overflow=hidden;" parent="1" vertex="1">
            <mxGeometry x="70" y="340" width="160" height="20" as="geometry" />
          </mxCell>
        </UserObject>
        <mxCell id="ELZsl5hJJOaM7VQSEPj--1" value="Asset Information" style="text;strokeColor=none;fillColor=none;html=1;fontSize=20;fontStyle=1;verticalAlign=middle;align=left;" parent="1" vertex="1">
          <mxGeometry x="70" y="210" width="100" height="40" as="geometry" />
        </mxCell>
        <mxCell id="ELZsl5hJJOaM7VQSEPj--19" value="" style="shape=table;startSize=0;container=1;collapsible=0;childLayout=tableLayout;fontSize=16;fillColor=none;" parent="1" vertex="1">
          <mxGeometry x="55" y="130" width="975" height="62.5" as="geometry" />
        </mxCell>
        <mxCell id="ELZsl5hJJOaM7VQSEPj--20" value="" style="shape=tableRow;horizontal=0;startSize=0;swimlaneHead=0;swimlaneBody=0;strokeColor=inherit;top=0;left=0;bottom=0;right=0;collapsible=0;dropTarget=0;fillColor=none;points=[[0,0.5],[1,0.5]];portConstraint=eastwest;fontSize=16;" parent="ELZsl5hJJOaM7VQSEPj--19" vertex="1">
          <mxGeometry width="975" height="28" as="geometry" />
        </mxCell>
        <mxCell id="ELZsl5hJJOaM7VQSEPj--21" value="Status" style="shape=partialRectangle;html=1;whiteSpace=wrap;connectable=0;strokeColor=inherit;overflow=hidden;fillColor=none;top=0;left=0;bottom=0;right=0;pointerEvents=1;fontSize=14;align=left;" parent="ELZsl5hJJOaM7VQSEPj--20" vertex="1">
          <mxGeometry width="163" height="28" as="geometry">
            <mxRectangle width="163" height="28" as="alternateBounds" />
          </mxGeometry>
        </mxCell>
        <mxCell id="ELZsl5hJJOaM7VQSEPj--22" value="Resolution" style="shape=partialRectangle;html=1;whiteSpace=wrap;connectable=0;strokeColor=inherit;overflow=hidden;fillColor=none;top=0;left=0;bottom=0;right=0;pointerEvents=1;fontSize=14;align=left;" parent="ELZsl5hJJOaM7VQSEPj--20" vertex="1">
          <mxGeometry x="163" width="162" height="28" as="geometry">
            <mxRectangle width="162" height="28" as="alternateBounds" />
          </mxGeometry>
        </mxCell>
        <mxCell id="ELZsl5hJJOaM7VQSEPj--23" value="Type" style="shape=partialRectangle;html=1;whiteSpace=wrap;connectable=0;strokeColor=inherit;overflow=hidden;fillColor=none;top=0;left=0;bottom=0;right=0;pointerEvents=1;fontSize=14;align=left;" parent="ELZsl5hJJOaM7VQSEPj--20" vertex="1">
          <mxGeometry x="325" width="162" height="28" as="geometry">
            <mxRectangle width="162" height="28" as="alternateBounds" />
          </mxGeometry>
        </mxCell>
        <mxCell id="ELZsl5hJJOaM7VQSEPj--32" value="Priority" style="shape=partialRectangle;html=1;whiteSpace=wrap;connectable=0;strokeColor=inherit;overflow=hidden;fillColor=none;top=0;left=0;bottom=0;right=0;pointerEvents=1;fontSize=14;align=left;" parent="ELZsl5hJJOaM7VQSEPj--20" vertex="1">
          <mxGeometry x="487" width="163" height="28" as="geometry">
            <mxRectangle width="163" height="28" as="alternateBounds" />
          </mxGeometry>
        </mxCell>
        <mxCell id="ELZsl5hJJOaM7VQSEPj--34" value="Report Date" style="shape=partialRectangle;html=1;whiteSpace=wrap;connectable=0;strokeColor=inherit;overflow=hidden;fillColor=none;top=0;left=0;bottom=0;right=0;pointerEvents=1;fontSize=14;align=left;" parent="ELZsl5hJJOaM7VQSEPj--20" vertex="1">
          <mxGeometry x="650" width="162" height="28" as="geometry">
            <mxRectangle width="162" height="28" as="alternateBounds" />
          </mxGeometry>
        </mxCell>
        <mxCell id="ELZsl5hJJOaM7VQSEPj--36" value="Closed Date" style="shape=partialRectangle;html=1;whiteSpace=wrap;connectable=0;strokeColor=inherit;overflow=hidden;fillColor=none;top=0;left=0;bottom=0;right=0;pointerEvents=1;fontSize=14;align=left;" parent="ELZsl5hJJOaM7VQSEPj--20" vertex="1">
          <mxGeometry x="812" width="163" height="28" as="geometry">
            <mxRectangle width="163" height="28" as="alternateBounds" />
          </mxGeometry>
        </mxCell>
        <mxCell id="ELZsl5hJJOaM7VQSEPj--24" value="" style="shape=tableRow;horizontal=0;startSize=0;swimlaneHead=0;swimlaneBody=0;strokeColor=inherit;top=0;left=0;bottom=0;right=0;collapsible=0;dropTarget=0;fillColor=none;points=[[0,0.5],[1,0.5]];portConstraint=eastwest;fontSize=16;" parent="ELZsl5hJJOaM7VQSEPj--19" vertex="1">
          <mxGeometry y="28" width="975" height="35" as="geometry" />
        </mxCell>
        <mxCell id="ELZsl5hJJOaM7VQSEPj--25" value="Closed" style="shape=partialRectangle;html=1;whiteSpace=wrap;connectable=0;strokeColor=inherit;overflow=hidden;fillColor=none;top=0;left=0;bottom=0;right=0;pointerEvents=1;fontSize=16;align=left;" parent="ELZsl5hJJOaM7VQSEPj--24" vertex="1">
          <mxGeometry width="163" height="35" as="geometry">
            <mxRectangle width="163" height="35" as="alternateBounds" />
          </mxGeometry>
        </mxCell>
        <mxCell id="ELZsl5hJJOaM7VQSEPj--26" value="Comleted" style="shape=partialRectangle;html=1;whiteSpace=wrap;connectable=0;strokeColor=inherit;overflow=hidden;fillColor=none;top=0;left=0;bottom=0;right=0;pointerEvents=1;fontSize=16;align=left;" parent="ELZsl5hJJOaM7VQSEPj--24" vertex="1">
          <mxGeometry x="163" width="162" height="35" as="geometry">
            <mxRectangle width="162" height="35" as="alternateBounds" />
          </mxGeometry>
        </mxCell>
        <mxCell id="ELZsl5hJJOaM7VQSEPj--27" value="Issue" style="shape=partialRectangle;html=1;whiteSpace=wrap;connectable=0;strokeColor=inherit;overflow=hidden;fillColor=none;top=0;left=0;bottom=0;right=0;pointerEvents=1;fontSize=16;align=left;" parent="ELZsl5hJJOaM7VQSEPj--24" vertex="1">
          <mxGeometry x="325" width="162" height="35" as="geometry">
            <mxRectangle width="162" height="35" as="alternateBounds" />
          </mxGeometry>
        </mxCell>
        <mxCell id="ELZsl5hJJOaM7VQSEPj--33" value="Medium" style="shape=partialRectangle;html=1;whiteSpace=wrap;connectable=0;strokeColor=inherit;overflow=hidden;fillColor=none;top=0;left=0;bottom=0;right=0;pointerEvents=1;fontSize=16;align=left;" parent="ELZsl5hJJOaM7VQSEPj--24" vertex="1">
          <mxGeometry x="487" width="163" height="35" as="geometry">
            <mxRectangle width="163" height="35" as="alternateBounds" />
          </mxGeometry>
        </mxCell>
        <mxCell id="ELZsl5hJJOaM7VQSEPj--35" value="25-01-2025" style="shape=partialRectangle;html=1;whiteSpace=wrap;connectable=0;strokeColor=inherit;overflow=hidden;fillColor=none;top=0;left=0;bottom=0;right=0;pointerEvents=1;fontSize=16;align=left;" parent="ELZsl5hJJOaM7VQSEPj--24" vertex="1">
          <mxGeometry x="650" width="162" height="35" as="geometry">
            <mxRectangle width="162" height="35" as="alternateBounds" />
          </mxGeometry>
        </mxCell>
        <mxCell id="ELZsl5hJJOaM7VQSEPj--37" value="03-02-2025" style="shape=partialRectangle;html=1;whiteSpace=wrap;connectable=0;strokeColor=inherit;overflow=hidden;fillColor=none;top=0;left=0;bottom=0;right=0;pointerEvents=1;fontSize=16;align=left;" parent="ELZsl5hJJOaM7VQSEPj--24" vertex="1">
          <mxGeometry x="812" width="163" height="35" as="geometry">
            <mxRectangle width="163" height="35" as="alternateBounds" />
          </mxGeometry>
        </mxCell>
        <mxCell id="ELZsl5hJJOaM7VQSEPj--38" value="Assigned Technician" style="text;html=1;align=left;verticalAlign=middle;whiteSpace=wrap;rounded=0;" parent="1" vertex="1">
          <mxGeometry x="52.5" y="460" width="127.5" height="30" as="geometry" />
        </mxCell>
        <mxCell id="ELZsl5hJJOaM7VQSEPj--40" value="Jameson, James" style="text;html=1;align=left;verticalAlign=middle;whiteSpace=wrap;rounded=0;fontSize=16;" parent="1" vertex="1">
          <mxGeometry x="52.5" y="485" width="215" height="30" as="geometry" />
        </mxCell>
        <mxCell id="ELZsl5hJJOaM7VQSEPj--42" value="" style="shape=table;startSize=0;container=1;collapsible=0;childLayout=tableLayout;strokeColor=default;fontSize=16;align=center;" parent="1" vertex="1">
          <mxGeometry x="27.5" y="570" width="1030" height="110" as="geometry" />
        </mxCell>
        <mxCell id="ELZsl5hJJOaM7VQSEPj--43" value="" style="shape=tableRow;horizontal=0;startSize=0;swimlaneHead=0;swimlaneBody=0;strokeColor=inherit;top=0;left=0;bottom=0;right=0;collapsible=0;dropTarget=0;fillColor=none;points=[[0,0.5],[1,0.5]];portConstraint=eastwest;fontSize=16;" parent="ELZsl5hJJOaM7VQSEPj--42" vertex="1">
          <mxGeometry width="1030" height="36" as="geometry" />
        </mxCell>
        <mxCell id="ELZsl5hJJOaM7VQSEPj--44" value="&lt;b&gt;Note&lt;/b&gt;" style="shape=partialRectangle;html=1;whiteSpace=wrap;connectable=0;strokeColor=#6c8ebf;overflow=hidden;fillColor=#dae8fc;top=0;left=0;bottom=0;right=0;pointerEvents=1;fontSize=16;" parent="ELZsl5hJJOaM7VQSEPj--43" vertex="1">
          <mxGeometry width="518" height="36" as="geometry">
            <mxRectangle width="518" height="36" as="alternateBounds" />
          </mxGeometry>
        </mxCell>
        <mxCell id="ELZsl5hJJOaM7VQSEPj--45" value="&lt;b&gt;Employee&lt;/b&gt;" style="shape=partialRectangle;html=1;whiteSpace=wrap;connectable=0;strokeColor=#6c8ebf;overflow=hidden;fillColor=#dae8fc;top=0;left=0;bottom=0;right=0;pointerEvents=1;fontSize=16;" parent="ELZsl5hJJOaM7VQSEPj--43" vertex="1">
          <mxGeometry x="518" width="205" height="36" as="geometry">
            <mxRectangle width="205" height="36" as="alternateBounds" />
          </mxGeometry>
        </mxCell>
        <mxCell id="ELZsl5hJJOaM7VQSEPj--46" value="&lt;b&gt;Date&lt;/b&gt;" style="shape=partialRectangle;html=1;whiteSpace=wrap;connectable=0;strokeColor=#6c8ebf;overflow=hidden;fillColor=#dae8fc;top=0;left=0;bottom=0;right=0;pointerEvents=1;fontSize=16;" parent="ELZsl5hJJOaM7VQSEPj--43" vertex="1">
          <mxGeometry x="723" width="184" height="36" as="geometry">
            <mxRectangle width="184" height="36" as="alternateBounds" />
          </mxGeometry>
        </mxCell>
        <mxCell id="ELZsl5hJJOaM7VQSEPj--57" style="shape=partialRectangle;html=1;whiteSpace=wrap;connectable=0;strokeColor=#6c8ebf;overflow=hidden;fillColor=#dae8fc;top=0;left=0;bottom=0;right=0;pointerEvents=1;fontSize=16;" parent="ELZsl5hJJOaM7VQSEPj--43" vertex="1">
          <mxGeometry x="907" width="123" height="36" as="geometry">
            <mxRectangle width="123" height="36" as="alternateBounds" />
          </mxGeometry>
        </mxCell>
        <mxCell id="ELZsl5hJJOaM7VQSEPj--47" value="" style="shape=tableRow;horizontal=0;startSize=0;swimlaneHead=0;swimlaneBody=0;strokeColor=inherit;top=0;left=0;bottom=0;right=0;collapsible=0;dropTarget=0;fillColor=none;points=[[0,0.5],[1,0.5]];portConstraint=eastwest;fontSize=16;" parent="ELZsl5hJJOaM7VQSEPj--42" vertex="1">
          <mxGeometry y="36" width="1030" height="38" as="geometry" />
        </mxCell>
        <mxCell id="ELZsl5hJJOaM7VQSEPj--48" value="Replacement parts arrived. Starting repair tomorrow." style="shape=partialRectangle;html=1;whiteSpace=wrap;connectable=0;strokeColor=inherit;overflow=hidden;fillColor=none;top=0;left=0;bottom=0;right=0;pointerEvents=1;fontSize=16;align=left;" parent="ELZsl5hJJOaM7VQSEPj--47" vertex="1">
          <mxGeometry width="518" height="38" as="geometry">
            <mxRectangle width="518" height="38" as="alternateBounds" />
          </mxGeometry>
        </mxCell>
        <mxCell id="ELZsl5hJJOaM7VQSEPj--49" value="Jameson, James" style="shape=partialRectangle;html=1;whiteSpace=wrap;connectable=0;strokeColor=inherit;overflow=hidden;fillColor=none;top=0;left=0;bottom=0;right=0;pointerEvents=1;fontSize=16;" parent="ELZsl5hJJOaM7VQSEPj--47" vertex="1">
          <mxGeometry x="518" width="205" height="38" as="geometry">
            <mxRectangle width="205" height="38" as="alternateBounds" />
          </mxGeometry>
        </mxCell>
        <mxCell id="ELZsl5hJJOaM7VQSEPj--50" value="29-01-2025" style="shape=partialRectangle;html=1;whiteSpace=wrap;connectable=0;strokeColor=inherit;overflow=hidden;fillColor=none;top=0;left=0;bottom=0;right=0;pointerEvents=1;fontSize=16;" parent="ELZsl5hJJOaM7VQSEPj--47" vertex="1">
          <mxGeometry x="723" width="184" height="38" as="geometry">
            <mxRectangle width="184" height="38" as="alternateBounds" />
          </mxGeometry>
        </mxCell>
        <mxCell id="ELZsl5hJJOaM7VQSEPj--58" value="&lt;font style=&quot;color: light-dark(rgb(0, 0, 0), rgb(126, 166, 224));&quot;&gt;Edit &lt;/font&gt;&lt;font style=&quot;color: light-dark(rgb(0, 0, 0), rgb(255, 255, 255));&quot;&gt;|&lt;/font&gt;&lt;font style=&quot;color: light-dark(rgb(0, 0, 0), rgb(126, 166, 224));&quot;&gt; &lt;/font&gt;&lt;font style=&quot;color: light-dark(rgb(0, 0, 0), rgb(255, 102, 102));&quot;&gt;Delete&lt;/font&gt;" style="shape=partialRectangle;html=1;whiteSpace=wrap;connectable=0;strokeColor=inherit;overflow=hidden;fillColor=none;top=0;left=0;bottom=0;right=0;pointerEvents=1;fontSize=16;" parent="ELZsl5hJJOaM7VQSEPj--47" vertex="1">
          <mxGeometry x="907" width="123" height="38" as="geometry">
            <mxRectangle width="123" height="38" as="alternateBounds" />
          </mxGeometry>
        </mxCell>
        <mxCell id="ELZsl5hJJOaM7VQSEPj--51" value="" style="shape=tableRow;horizontal=0;startSize=0;swimlaneHead=0;swimlaneBody=0;strokeColor=inherit;top=0;left=0;bottom=0;right=0;collapsible=0;dropTarget=0;fillColor=none;points=[[0,0.5],[1,0.5]];portConstraint=eastwest;fontSize=16;" parent="ELZsl5hJJOaM7VQSEPj--42" vertex="1">
          <mxGeometry y="74" width="1030" height="36" as="geometry" />
        </mxCell>
        <mxCell id="ELZsl5hJJOaM7VQSEPj--52" value="&lt;span style=&quot;&quot;&gt;Replacement parts ordered&lt;/span&gt;" style="shape=partialRectangle;html=1;whiteSpace=wrap;connectable=0;strokeColor=inherit;overflow=hidden;fillColor=none;top=0;left=0;bottom=0;right=0;pointerEvents=1;fontSize=16;align=left;" parent="ELZsl5hJJOaM7VQSEPj--51" vertex="1">
          <mxGeometry width="518" height="36" as="geometry">
            <mxRectangle width="518" height="36" as="alternateBounds" />
          </mxGeometry>
        </mxCell>
        <mxCell id="ELZsl5hJJOaM7VQSEPj--53" value="Jameson, James" style="shape=partialRectangle;html=1;whiteSpace=wrap;connectable=0;strokeColor=inherit;overflow=hidden;fillColor=none;top=0;left=0;bottom=0;right=0;pointerEvents=1;fontSize=16;" parent="ELZsl5hJJOaM7VQSEPj--51" vertex="1">
          <mxGeometry x="518" width="205" height="36" as="geometry">
            <mxRectangle width="205" height="36" as="alternateBounds" />
          </mxGeometry>
        </mxCell>
        <mxCell id="ELZsl5hJJOaM7VQSEPj--54" value="26-01-2025" style="shape=partialRectangle;html=1;whiteSpace=wrap;connectable=0;strokeColor=inherit;overflow=hidden;fillColor=none;top=0;left=0;bottom=0;right=0;pointerEvents=1;fontSize=16;" parent="ELZsl5hJJOaM7VQSEPj--51" vertex="1">
          <mxGeometry x="723" width="184" height="36" as="geometry">
            <mxRectangle width="184" height="36" as="alternateBounds" />
          </mxGeometry>
        </mxCell>
        <mxCell id="ELZsl5hJJOaM7VQSEPj--59" value="&lt;font style=&quot;color: light-dark(rgb(0, 0, 0), rgb(126, 166, 224));&quot;&gt;Edit&amp;nbsp;&lt;/font&gt;&lt;font style=&quot;color: light-dark(rgb(0, 0, 0), rgb(255, 255, 255));&quot;&gt;|&lt;/font&gt;&lt;font style=&quot;color: light-dark(rgb(0, 0, 0), rgb(126, 166, 224));&quot;&gt;&amp;nbsp;&lt;/font&gt;&lt;font style=&quot;color: light-dark(rgb(0, 0, 0), rgb(255, 102, 102));&quot;&gt;Delete&lt;/font&gt;" style="shape=partialRectangle;html=1;whiteSpace=wrap;connectable=0;strokeColor=inherit;overflow=hidden;fillColor=none;top=0;left=0;bottom=0;right=0;pointerEvents=1;fontSize=16;" parent="ELZsl5hJJOaM7VQSEPj--51" vertex="1">
          <mxGeometry x="907" width="123" height="36" as="geometry">
            <mxRectangle width="123" height="36" as="alternateBounds" />
          </mxGeometry>
        </mxCell>
        <mxCell id="ELZsl5hJJOaM7VQSEPj--55" value="Notes" style="text;strokeColor=none;fillColor=none;html=1;fontSize=20;fontStyle=1;verticalAlign=middle;align=left;" parent="1" vertex="1">
          <mxGeometry x="52.5" y="530" width="100" height="40" as="geometry" />
        </mxCell>
        <mxCell id="ELZsl5hJJOaM7VQSEPj--56" value="Add Note" style="html=1;shadow=0;dashed=0;shape=mxgraph.bootstrap.rrect;rSize=5;strokeColor=none;strokeWidth=1;fillColor=none;fontColor=#0085FC;whiteSpace=wrap;align=center;verticalAlign=middle;spacingLeft=0;fontStyle=0;fontSize=16;spacing=5;" parent="1" vertex="1">
          <mxGeometry x="125" y="530" width="85" height="40" as="geometry" />
        </mxCell>
        <UserObject label="&amp;nbsp;Issue Description:" placeholders="1" name="Variable" id="ELZsl5hJJOaM7VQSEPj--60">
          <mxCell style="text;html=1;strokeColor=none;fillColor=none;align=left;verticalAlign=middle;whiteSpace=wrap;overflow=hidden;" parent="1" vertex="1">
            <mxGeometry x="56" y="385" width="114" height="20" as="geometry" />
          </mxCell>
        </UserObject>
        <UserObject label="&lt;span style=&quot;font-size: 14px;&quot;&gt;Monitor doesn&#39;t turn on anymore after Employee violently punched it with their fist because &quot;I deleted a comment and suddenly the code wouldn&#39;t compile anymore&quot;.&lt;/span&gt;" placeholders="1" name="Variable" id="ELZsl5hJJOaM7VQSEPj--61">
          <mxCell style="text;html=1;strokeColor=none;fillColor=none;align=left;verticalAlign=top;whiteSpace=wrap;overflow=hidden;" parent="1" vertex="1">
            <mxGeometry x="56" y="405" width="974" height="65" as="geometry" />
          </mxCell>
        </UserObject>
      </root>
    </mxGraphModel>
  </diagram>
</mxfile>
